<svg width="16" height="17" viewBox="0 0 16 17" fill="none" xmlns="http://www.w3.org/2000/svg">
<path d="M13.6658 1.29639H4.99913C4.61604 1.29639 4.24864 1.44857 3.97776 1.71945C3.70687 1.99034 3.55469 2.35774 3.55469 2.74083V11.4075C3.55469 11.7906 3.70687 12.158 3.97776 12.4289C4.24864 12.6998 4.61604 12.8519 4.99913 12.8519H13.6658C14.0489 12.8519 14.4163 12.6998 14.6872 12.4289C14.9581 12.158 15.1102 11.7906 15.1102 11.4075V2.74083C15.1102 2.35774 14.9581 1.99034 14.6872 1.71945C14.4163 1.44857 14.0489 1.29639 13.6658 1.29639ZM9.33247 3.10194C9.81133 3.10194 10.2706 3.29217 10.6092 3.63078C10.9478 3.96938 11.138 4.42863 11.138 4.9075C11.138 5.38636 10.9478 5.84561 10.6092 6.18422C10.2706 6.52283 9.81133 6.71305 9.33247 6.71305C8.8536 6.71305 8.39435 6.52283 8.05574 6.18422C7.71714 5.84561 7.52691 5.38636 7.52691 4.9075C7.52691 4.42863 7.71714 3.96938 8.05574 3.63078C8.39435 3.29217 8.8536 3.10194 9.33247 3.10194ZM12.9436 10.6853H5.72135V10.5047C5.72135 9.16933 7.34924 7.79639 9.33247 7.79639C11.3157 7.79639 12.9436 9.16933 12.9436 10.5047V10.6853Z" fill="#7B8489"/>
<path d="M2.28745 5.74072H0.890625V14.1217C0.890625 14.892 1.5171 15.5185 2.28745 15.5185H10.6684V14.1217H2.28745V5.74072Z" fill="#7B8489"/>
</svg>
