<svg width="7" height="9" viewBox="0 0 7 9" fill="none" xmlns="http://www.w3.org/2000/svg">
<path d="M5.02499 0.367745L3.00128 2.40808L0.977573 0.368088C0.753774 0.144289 0.3917 0.144289 0.16785 0.368088C-0.0559499 0.594287 -0.0559499 0.959977 0.16785 1.18619L2.59596 3.63298C2.81976 3.85678 3.18303 3.85678 3.40568 3.63298L5.83499 1.18619C6.05911 0.959994 6.05791 0.594304 5.83499 0.368088C5.61093 0.144032 5.24879 0.144032 5.02499 0.36782V0.367745Z" fill="#7B8489"/>
<path d="M0.167884 8.63172C0.391682 8.85552 0.753754 8.85552 0.977603 8.63172L3.0013 6.59137L5.025 8.63172C5.24758 8.85552 5.60972 8.85552 5.83352 8.63172C6.05765 8.40552 6.05765 8.03983 5.83352 7.81421L3.40543 5.3674C3.18163 5.143 2.81956 5.143 2.59571 5.3674L0.16761 7.81421C-0.0559145 8.04015 -0.0559145 8.40557 0.167877 8.63172H0.167884Z" fill="#7B8489"/>
</svg>
