<svg width="16" height="16" viewBox="0 0 16 16" fill="none" xmlns="http://www.w3.org/2000/svg">
<path fill-rule="evenodd" clip-rule="evenodd" d="M8 0C3.58181 0 0 3.58181 0 8C0 12.4182 3.58181 16 8 16C12.4182 16 16 12.4182 16 8C16 3.58181 12.4182 0 8 0ZM8 14.6667C4.31819 14.6667 1.33334 11.6818 1.33334 8C1.33334 4.31819 4.31819 1.33334 8 1.33334C11.6818 1.33334 14.6667 4.31819 14.6667 8C14.6667 11.6818 11.6818 14.6667 8 14.6667ZM8.86194 4.19525C9.12228 3.93491 9.54441 3.93491 9.80475 4.19525C10.0651 4.45563 10.0651 4.87772 9.80475 5.13806L6.94281 8L9.80475 10.8619C10.0651 11.1223 10.0651 11.5444 9.80475 11.8047C9.54441 12.0651 9.12228 12.0651 8.86194 11.8047L5.52859 8.47141C5.26825 8.21106 5.26825 7.78894 5.52859 7.52859L8.86194 4.19525Z" fill="#7B8489"/>
</svg>
