<svg width="16" height="17" viewBox="0 0 16 17" fill="none" xmlns="http://www.w3.org/2000/svg">
<path fill-rule="evenodd" clip-rule="evenodd" d="M12.4716 3.6435C12.7319 3.90385 12.7319 4.32596 12.4716 4.58631L4.47157 12.5863C4.21122 12.8467 3.78911 12.8467 3.52876 12.5863C3.26841 12.326 3.26841 11.9039 3.52876 11.6435L11.5288 3.6435C11.7891 3.38315 12.2112 3.38315 12.4716 3.6435Z" fill="#22251D"/>
<path fill-rule="evenodd" clip-rule="evenodd" d="M3.52876 3.6435C3.78911 3.38315 4.21122 3.38315 4.47157 3.6435L12.4716 11.6435C12.7319 11.9039 12.7319 12.326 12.4716 12.5863C12.2112 12.8467 11.7891 12.8467 11.5288 12.5863L3.52876 4.58631C3.26841 4.32596 3.26841 3.90385 3.52876 3.6435Z" fill="#22251D"/>
</svg>
