<svg width="16" height="17" viewBox="0 0 16 17" fill="none" xmlns="http://www.w3.org/2000/svg">
<g clip-path="url(#clip0_794_2893)">
<path d="M2.55512 1.29639H13.444C13.6503 1.29639 13.8481 1.37599 13.994 1.51768C14.1398 1.65938 14.2218 1.85156 14.2218 2.05194V15.6519C14.2218 15.8523 14.1398 16.0445 13.994 16.1862C13.8481 16.3279 13.6503 16.4075 13.444 16.4075H2.55512C2.34884 16.4075 2.15101 16.3279 2.00515 16.1862C1.85929 16.0445 1.77734 15.8523 1.77734 15.6519V2.05194C1.77734 1.85156 1.85929 1.65938 2.00515 1.51768C2.15101 1.37599 2.34884 1.29639 2.55512 1.29639ZM5.66623 8.09639V5.82972L1.77734 8.85194L5.66623 11.8742V9.6075H10.3329V8.09639H5.66623Z" fill="#7B8489"/>
</g>
<defs>
<clipPath id="clip0_794_2893">
<rect width="16" height="16" fill="white" transform="translate(0 0.852051)"/>
</clipPath>
</defs>
</svg>
