<svg width="14" height="14" viewBox="0 0 14 14" fill="none" xmlns="http://www.w3.org/2000/svg">
<path fill-rule="evenodd" clip-rule="evenodd" d="M1.16699 3.49984C1.16699 3.17767 1.42816 2.9165 1.75033 2.9165H12.2503C12.5725 2.9165 12.8337 3.17767 12.8337 3.49984C12.8337 3.822 12.5725 4.08317 12.2503 4.08317H1.75033C1.42816 4.08317 1.16699 3.822 1.16699 3.49984Z" fill="#F9530B"/>
<path fill-rule="evenodd" clip-rule="evenodd" d="M5.83301 1.75016C5.6783 1.75016 5.52993 1.81162 5.42053 1.92102C5.31113 2.03041 5.24967 2.17879 5.24967 2.3335V2.91683H8.74967V2.3335C8.74967 2.17879 8.68822 2.03041 8.57882 1.92102C8.46942 1.81162 8.32105 1.75016 8.16634 1.75016H5.83301ZM9.91634 2.91683V2.3335C9.91634 1.86937 9.73197 1.42425 9.40378 1.09606C9.07559 0.767871 8.63047 0.583496 8.16634 0.583496H5.83301C5.36888 0.583496 4.92376 0.767871 4.59557 1.09606C4.26738 1.42425 4.08301 1.86937 4.08301 2.3335V2.91683H2.91634C2.59418 2.91683 2.33301 3.178 2.33301 3.50016V11.6668C2.33301 12.131 2.51738 12.5761 2.84557 12.9043C3.17376 13.2325 3.61888 13.4168 4.08301 13.4168H9.91634C10.3805 13.4168 10.8256 13.2325 11.1538 12.9043C11.482 12.5761 11.6663 12.131 11.6663 11.6668V3.50016C11.6663 3.178 11.4052 2.91683 11.083 2.91683H9.91634ZM3.49967 4.0835V11.6668C3.49967 11.8215 3.56113 11.9699 3.67053 12.0793C3.77993 12.1887 3.9283 12.2502 4.08301 12.2502H9.91634C10.0711 12.2502 10.2194 12.1887 10.3288 12.0793C10.4382 11.9699 10.4997 11.8215 10.4997 11.6668V4.0835H3.49967Z" fill="#F9530B"/>
</svg>
