<svg width="14" height="14" viewBox="0 0 14 14" fill="none" xmlns="http://www.w3.org/2000/svg">
<path fill-rule="evenodd" clip-rule="evenodd" d="M1.09557 2.26256C1.42376 1.93437 1.86888 1.75 2.33301 1.75H6.41634C6.73851 1.75 6.99967 2.01117 6.99967 2.33333C6.99967 2.6555 6.73851 2.91667 6.41634 2.91667H2.33301C2.1783 2.91667 2.02993 2.97812 1.92053 3.08752C1.81113 3.19692 1.74967 3.34529 1.74967 3.5V11.6667C1.74967 11.8214 1.81113 11.9697 1.92053 12.0791C2.02993 12.1885 2.1783 12.25 2.33301 12.25H10.4997C10.6544 12.25 10.8028 12.1885 10.9122 12.0791C11.0216 11.9697 11.083 11.8214 11.083 11.6667V7.58333C11.083 7.26117 11.3442 7 11.6663 7C11.9885 7 12.2497 7.26117 12.2497 7.58333V11.6667C12.2497 12.1308 12.0653 12.5759 11.7371 12.9041C11.4089 13.2323 10.9638 13.4167 10.4997 13.4167H2.33301C1.86888 13.4167 1.42376 13.2323 1.09557 12.9041C0.767382 12.5759 0.583008 12.1308 0.583008 11.6667V3.5C0.583008 3.03587 0.767382 2.59075 1.09557 2.26256Z" fill="#7B8489"/>
<path fill-rule="evenodd" clip-rule="evenodd" d="M11.6664 1.67936C11.4929 1.67936 11.3265 1.74828 11.2038 1.87094L5.77642 7.29836L5.46807 8.53175L6.70146 8.2234L12.1289 2.79599C12.2515 2.67332 12.3205 2.50694 12.3205 2.33347C12.3205 2.15999 12.2515 1.99361 12.1289 1.87094C12.0062 1.74828 11.8398 1.67936 11.6664 1.67936ZM10.3789 1.04599C10.7203 0.704526 11.1835 0.512695 11.6664 0.512695C12.1493 0.512695 12.6124 0.704526 12.9538 1.04599C13.2953 1.38745 13.4871 1.85057 13.4871 2.33347C13.4871 2.81636 13.2953 3.27948 12.9538 3.62094L7.41217 9.16261C7.33741 9.23737 7.24373 9.29041 7.14117 9.31605L4.80783 9.89938C4.60905 9.94908 4.39876 9.89083 4.25387 9.74594C4.10899 9.60106 4.05074 9.39077 4.10044 9.19199L4.68377 6.85865C4.70941 6.75608 4.76245 6.66241 4.83721 6.58765L10.3789 1.04599Z" fill="#7B8489"/>
</svg>
