<svg xmlns="http://www.w3.org/2000/svg" xmlns:xlink="http://www.w3.org/1999/xlink" width="3000" zoomAndPan="magnify" viewBox="0 0 2250 2250.000011" height="3000" preserveAspectRatio="xMidYMid meet" version="1.0"><defs><clipPath id="id1"><path d="M 135 185.542969 L 2115 185.542969 L 2115 1864 L 135 1864 Z M 135 185.542969 " clip-rule="nonzero"/></clipPath><clipPath id="id2"><path d="M 2.152344 595 L 2247.953125 595 L 2247.953125 2063.429688 L 2.152344 2063.429688 Z M 2.152344 595 " clip-rule="nonzero"/></clipPath></defs><g clip-path="url(#id1)"><path fill="#1d71b8" d="M 2016.605469 332.203125 L 944.5 332.203125 L 944.5 283.4375 C 944.5 229.382812 900.671875 185.554688 846.621094 185.554688 L 233.5 185.554688 C 179.433594 185.554688 135.605469 229.382812 135.605469 283.4375 L 135.605469 1765.421875 C 135.605469 1819.472656 179.433594 1863.300781 233.5 1863.300781 L 2016.605469 1863.300781 C 2070.671875 1863.300781 2114.484375 1819.472656 2114.484375 1765.421875 L 2114.484375 430.085938 C 2114.484375 376.019531 2070.671875 332.203125 2016.605469 332.203125 " fill-opacity="1" fill-rule="nonzero"/></g><path fill="#1a67a7" d="M 135.605469 720.761719 L 2114.484375 720.761719 L 2114.484375 531.507812 L 135.605469 531.507812 Z M 135.605469 720.761719 " fill-opacity="1" fill-rule="nonzero"/><g clip-path="url(#id2)"><path fill="#36a9e1" d="M 2147.648438 595.175781 L 102.457031 595.175781 C 43.273438 595.175781 -1.519531 643.015625 2.386719 701.667969 L 87.125 1973.492188 C 90.449219 2023.285156 136.945312 2063.429688 191 2063.429688 L 2059.089844 2063.429688 C 2113.15625 2063.429688 2159.65625 2023.285156 2162.976562 1973.492188 L 2247.703125 701.667969 C 2251.613281 643.015625 2206.832031 595.175781 2147.648438 595.175781 " fill-opacity="1" fill-rule="nonzero"/></g></svg>