<svg width="16" height="16" viewBox="0 0 16 16" fill="none" xmlns="http://www.w3.org/2000/svg">
<path fill-rule="evenodd" clip-rule="evenodd" d="M7.5894 0.806936C7.83014 0.619693 8.16725 0.619693 8.40799 0.806936L14.408 5.4736C14.5704 5.59991 14.6654 5.79411 14.6654 5.99984V13.3332C14.6654 13.8636 14.4546 14.3723 14.0796 14.7474C13.7045 15.1225 13.1958 15.3332 12.6654 15.3332H3.33203C2.8016 15.3332 2.29289 15.1225 1.91782 14.7474C1.54274 14.3723 1.33203 13.8636 1.33203 13.3332V5.99984C1.33203 5.79411 1.42701 5.59991 1.5894 5.4736L7.5894 0.806936ZM2.66536 6.32589V13.3332C2.66536 13.51 2.7356 13.6796 2.86063 13.8046C2.98565 13.9296 3.15522 13.9998 3.33203 13.9998H12.6654C12.8422 13.9998 13.0117 13.9296 13.1368 13.8046C13.2618 13.6796 13.332 13.51 13.332 13.3332V6.32589L7.9987 2.17774L2.66536 6.32589Z" fill="#7B8489"/>
<path fill-rule="evenodd" clip-rule="evenodd" d="M5.33203 8.00016C5.33203 7.63197 5.63051 7.3335 5.9987 7.3335H9.9987C10.3669 7.3335 10.6654 7.63197 10.6654 8.00016V14.6668C10.6654 15.035 10.3669 15.3335 9.9987 15.3335C9.63051 15.3335 9.33203 15.035 9.33203 14.6668V8.66683H6.66536V14.6668C6.66536 15.035 6.36689 15.3335 5.9987 15.3335C5.63051 15.3335 5.33203 15.035 5.33203 14.6668V8.00016Z" fill="#7B8489"/>
</svg>
