<svg width="16" height="17" viewBox="0 0 16 17" fill="none" xmlns="http://www.w3.org/2000/svg">
<g clip-path="url(#clip0_794_2873)">
<path fill-rule="evenodd" clip-rule="evenodd" d="M7.5894 1.65899C7.83014 1.47174 8.16725 1.47174 8.40799 1.65899L14.408 6.32565C14.5704 6.45196 14.6654 6.64616 14.6654 6.85189V14.1852C14.6654 14.7157 14.4546 15.2244 14.0796 15.5994C13.7045 15.9745 13.1958 16.1852 12.6654 16.1852H3.33203C2.8016 16.1852 2.29289 15.9745 1.91782 15.5994C1.54274 15.2244 1.33203 14.7157 1.33203 14.1852V6.85189C1.33203 6.64616 1.42701 6.45196 1.5894 6.32565L7.5894 1.65899ZM2.66536 7.17794V14.1852C2.66536 14.362 2.7356 14.5316 2.86063 14.6566C2.98565 14.7817 3.15522 14.8519 3.33203 14.8519H12.6654C12.8422 14.8519 13.0117 14.7817 13.1368 14.6566C13.2618 14.5316 13.332 14.362 13.332 14.1852V7.17794L7.9987 3.0298L2.66536 7.17794Z" fill="#F9F9F9"/>
<path fill-rule="evenodd" clip-rule="evenodd" d="M5.33203 8.85221C5.33203 8.48402 5.63051 8.18555 5.9987 8.18555H9.9987C10.3669 8.18555 10.6654 8.48402 10.6654 8.85221V15.5189C10.6654 15.8871 10.3669 16.1855 9.9987 16.1855C9.63051 16.1855 9.33203 15.8871 9.33203 15.5189V9.51888H6.66536V15.5189C6.66536 15.8871 6.36689 16.1855 5.9987 16.1855C5.63051 16.1855 5.33203 15.8871 5.33203 15.5189V8.85221Z" fill="#F9F9F9"/>
</g>
<defs>
<clipPath id="clip0_794_2873">
<rect width="16" height="16" fill="white" transform="translate(0 0.852051)"/>
</clipPath>
</defs>
</svg>
