<svg width="16" height="16" viewBox="0 0 16 16" fill="none" xmlns="http://www.w3.org/2000/svg">
<path d="M14.1341 2.66699H1.68967C1.45392 2.66699 1.22783 2.76064 1.06113 2.92734C0.894432 3.09404 0.800781 3.32013 0.800781 3.55588V12.4448C0.800781 12.6805 0.894432 12.9066 1.06113 13.0733C1.22783 13.24 1.45392 13.3337 1.68967 13.3337H14.1341C14.3699 13.3337 14.596 13.24 14.7627 13.0733C14.9294 12.9066 15.023 12.6805 15.023 12.4448V3.55588C15.023 3.32013 14.9294 3.09404 14.7627 2.92734C14.596 2.76064 14.3699 2.66699 14.1341 2.66699ZM13.4497 12.4448H2.42745L5.53856 9.22699L4.89856 8.60921L1.68967 11.9292V4.23144L7.21411 9.72921C7.38066 9.89477 7.60595 9.9877 7.84078 9.9877C8.07561 9.9877 8.3009 9.89477 8.46745 9.72921L14.1341 4.09366V11.8714L10.863 8.60033L10.2363 9.22699L13.4497 12.4448ZM2.27189 3.55588H13.4141L7.84078 9.0981L2.27189 3.55588Z" fill="#169B32"/>
</svg>
