<svg width="16" height="16" viewBox="0 0 16 16" fill="none" xmlns="http://www.w3.org/2000/svg">
<path d="M2 3.99992C2 3.82311 2.07024 3.65354 2.19526 3.52851C2.32029 3.40349 2.48986 3.33325 2.66667 3.33325H13.3333C13.5101 3.33325 13.6797 3.40349 13.8047 3.52851C13.9298 3.65354 14 3.82311 14 3.99992C14 4.17673 13.9298 4.3463 13.8047 4.47132C13.6797 4.59635 13.5101 4.66659 13.3333 4.66659H2.66667C2.48986 4.66659 2.32029 4.59635 2.19526 4.47132C2.07024 4.3463 2 4.17673 2 3.99992ZM2 11.9999C2 11.8231 2.07024 11.6535 2.19526 11.5285C2.32029 11.4035 2.48986 11.3333 2.66667 11.3333H13.3333C13.5101 11.3333 13.6797 11.4035 13.8047 11.5285C13.9298 11.6535 14 11.8231 14 11.9999C14 12.1767 13.9298 12.3463 13.8047 12.4713C13.6797 12.5963 13.5101 12.6666 13.3333 12.6666H2.66667C2.48986 12.6666 2.32029 12.5963 2.19526 12.4713C2.07024 12.3463 2 12.1767 2 11.9999ZM2 7.99992C2 7.82311 2.07024 7.65354 2.19526 7.52851C2.32029 7.40349 2.48986 7.33325 2.66667 7.33325H13.3333C13.5101 7.33325 13.6797 7.40349 13.8047 7.52851C13.9298 7.65354 14 7.82311 14 7.99992C14 8.17673 13.9298 8.3463 13.8047 8.47132C13.6797 8.59635 13.5101 8.66659 13.3333 8.66659H6.84133L5.07667 10.4319L3.31133 8.66659H2.66667C2.48986 8.66659 2.32029 8.59635 2.19526 8.47132C2.07024 8.3463 2 8.17673 2 7.99992Z" fill="#22251D"/>
</svg>
