<svg width="19" height="22" viewBox="0 0 19 22" fill="none" xmlns="http://www.w3.org/2000/svg">
<path d="M18 16.9938H16.9907V7.6963C16.9907 7.26798 16.9438 6.83962 16.8513 6.42314C16.74 5.92182 16.244 5.60581 15.7426 5.71711C15.2416 5.82857 14.9258 6.32533 15.0372 6.82669C15.0992 7.1058 15.1323 7.406 15.1323 7.6963V16.9938L4.46606 16.9938V7.7573C4.46606 5.69982 6.20728 3.82968 8.34752 3.58848C8.35057 3.58815 8.35357 3.5876 8.35661 3.58722C8.81177 3.53189 9.16862 3.13282 9.17255 2.67347C9.17259 2.67043 9.17276 2.66743 9.17276 2.66438C9.17276 2.23534 9.52081 1.88624 9.94866 1.88624C10.3765 1.88624 10.7246 2.2353 10.7246 2.66447C10.7246 3.1102 11.0764 3.51937 11.5178 3.58426C12.0105 3.65726 12.4847 3.81687 12.927 4.05869C13.0685 4.13605 13.2211 4.17274 13.3717 4.17274C13.7005 4.17274 14.0192 3.99761 14.188 3.68845C14.434 3.23773 14.2684 2.67275 13.818 2.42653C13.3868 2.19075 12.9339 2.0095 12.4654 1.88434C12.1324 0.809373 11.1301 0.0263672 9.94866 0.0263672C8.77567 0.0263672 7.77972 0.798214 7.43957 1.86117C6.24219 2.14019 5.13396 2.77775 4.26439 3.6986C3.19598 4.83012 2.60758 6.27152 2.60758 7.7573V16.9938H1.64015C1.12696 16.9938 0.710938 17.4102 0.710938 17.9238C0.710938 18.4374 1.12696 18.8537 1.64015 18.8537H6.79187C6.90832 20.4252 8.22148 21.6685 9.82003 21.6685C11.4186 21.6685 12.7318 20.4252 12.8482 18.8537H18C18.5132 18.8537 18.9292 18.4373 18.9292 17.9237C18.9292 17.4102 18.5132 16.9938 18 16.9938ZM9.82003 19.8086C9.24736 19.8086 8.76891 19.3971 8.66298 18.8537H10.9771C10.8712 19.3971 10.3927 19.8086 9.82003 19.8086Z" fill="#7B8489"/>
<path d="M15.1402 5.56251C15.6533 5.56251 16.0694 5.14617 16.0694 4.63258C16.0694 4.11898 15.6533 3.70264 15.1402 3.70264C14.627 3.70264 14.2109 4.11898 14.2109 4.63258C14.2109 5.14617 14.627 5.56251 15.1402 5.56251Z" fill="#7B8489"/>
</svg>
