<svg width="16" height="16" viewBox="0 0 16 16" fill="none" xmlns="http://www.w3.org/2000/svg">
<path d="M5.22873 1.69262C4.39673 1.48142 3.52473 1.57102 2.84153 1.95342C2.14553 2.34222 1.65753 3.03182 1.63353 3.95422C1.59673 5.39582 1.93033 7.33022 3.25513 9.60062C4.56313 11.843 6.00713 13.187 7.20553 13.9854C7.96233 14.4902 8.79833 14.5038 9.51273 14.175C10.2167 13.851 10.7879 13.2038 11.0847 12.4014C11.1586 12.2019 11.1883 11.9886 11.1717 11.7765C11.1551 11.5643 11.0927 11.3583 10.9887 11.1726L10.2255 9.81102C9.99092 9.39195 9.61335 9.0713 9.16182 8.90767C8.71028 8.74404 8.21494 8.74835 7.76633 8.91982L7.23353 9.12382C6.97513 9.22222 6.73753 9.17662 6.60313 9.04382C6.15113 8.59982 5.82793 7.99742 5.68153 7.34782C5.63513 7.14302 5.72953 6.90142 5.95513 6.73102L6.43593 6.36782C6.82463 6.07451 7.09297 5.64947 7.19062 5.17241C7.28827 4.69536 7.20852 4.19907 6.96633 3.77662L6.18873 2.42062C6.08571 2.2411 5.94763 2.08413 5.78271 1.95906C5.61779 1.834 5.42939 1.74338 5.22873 1.69262ZM2.43353 3.97582C2.44953 3.35662 2.76313 2.91422 3.23193 2.65182C3.71353 2.38222 4.37113 2.29982 5.03193 2.46782C5.12876 2.49228 5.21967 2.53597 5.29925 2.59631C5.37883 2.65665 5.44544 2.73239 5.49513 2.81902L6.27193 4.17502C6.41722 4.42838 6.46512 4.72604 6.40665 5.01219C6.34819 5.29835 6.18736 5.55336 5.95433 5.72942L5.47353 6.09262C5.05753 6.40622 4.76953 6.94382 4.90073 7.52382C5.07833 8.30942 5.47113 9.05422 6.04233 9.61502C6.45993 10.0246 7.05513 10.0486 7.51913 9.87102L8.05193 9.66702C8.32112 9.56398 8.61841 9.56128 8.88943 9.6594C9.16045 9.75753 9.3871 9.94993 9.52793 10.2014L10.2903 11.5638C10.3863 11.735 10.4023 11.9398 10.3343 12.1238C10.1023 12.7518 9.66633 13.223 9.17833 13.4478C8.70073 13.6678 8.16073 13.6614 7.64953 13.3198C6.55273 12.5886 5.19353 11.335 3.94553 9.19742C2.69673 7.05342 2.40073 5.26622 2.43433 3.97582H2.43353ZM10.1951 1.64942C10.1024 1.59786 9.99301 1.58525 9.89099 1.61435C9.78897 1.64346 9.70269 1.7119 9.65113 1.80462C9.59957 1.89734 9.58696 2.00674 9.61606 2.10876C9.64517 2.21078 9.71361 2.29706 9.80633 2.34862L10.1135 2.51982C11.0732 3.05294 11.8896 3.8105 12.4928 4.72774C13.096 5.64499 13.4682 6.69465 13.5775 7.78702L13.6031 8.03902C13.6062 8.09296 13.6201 8.14572 13.644 8.19414C13.668 8.24255 13.7015 8.2856 13.7426 8.32071C13.7837 8.35581 13.8314 8.38223 13.883 8.39837C13.9345 8.41452 13.9888 8.42006 14.0425 8.41465C14.0963 8.40924 14.1484 8.393 14.1957 8.36691C14.243 8.34082 14.2845 8.30542 14.3178 8.26284C14.351 8.22026 14.3753 8.17139 14.3891 8.11917C14.403 8.06696 14.4061 8.01248 14.3983 7.95902L14.3735 7.70782C14.2515 6.48669 13.8355 5.31328 13.1612 4.28792C12.4869 3.26255 11.5744 2.41572 10.5015 1.81982L10.1951 1.64942ZM9.25753 3.79342C9.31218 3.70252 9.40069 3.63704 9.5036 3.61139C9.60652 3.58573 9.71541 3.602 9.80633 3.65662L9.90553 3.71582C10.5513 4.10298 11.1053 4.62576 11.5292 5.24801C11.9531 5.87027 12.2368 6.57716 12.3607 7.31982L12.3959 7.53342C12.406 7.5858 12.4055 7.63967 12.3944 7.69184C12.3834 7.74402 12.362 7.79347 12.3315 7.83726C12.3011 7.88105 12.2622 7.91831 12.2171 7.94685C12.1721 7.97539 12.1217 7.99462 12.0691 8.00343C12.0165 8.01223 11.9627 8.01042 11.9108 7.99811C11.8589 7.9858 11.81 7.96323 11.7669 7.93174C11.7239 7.90025 11.6876 7.86046 11.6601 7.81472C11.6327 7.76899 11.6147 7.71822 11.6071 7.66542L11.5711 7.45182C11.4664 6.82353 11.2266 6.22547 10.8682 5.69894C10.5097 5.17241 10.0413 4.72998 9.49513 4.40222L9.39593 4.34222C9.35085 4.31523 9.31154 4.27962 9.28022 4.23743C9.24891 4.19524 9.22622 4.14729 9.21344 4.09633C9.20066 4.04536 9.19805 3.99238 9.20575 3.94041C9.21345 3.88843 9.23132 3.83849 9.25833 3.79342H9.25753Z" fill="#169B32"/>
</svg>
