<svg width="17" height="17" viewBox="0 0 17 17" fill="none" xmlns="http://www.w3.org/2000/svg">
<g clip-path="url(#clip0_794_2866)">
<path d="M1.5 10.1597V6.41701C1.5 6.00531 1.64758 5.653 1.94273 5.36007C2.23738 5.06665 2.59176 4.91993 3.00588 4.91993H6.01765V3.42286C6.01765 3.01116 6.16522 2.6586 6.46038 2.36517C6.75503 2.07225 7.10941 1.92578 7.52353 1.92578H10.5353C10.9494 1.92578 11.304 2.07225 11.5992 2.36517C11.8939 2.6586 12.0412 3.01116 12.0412 3.42286V4.91993H15.0529C15.4671 4.91993 15.8217 5.06665 16.1168 5.36007C16.4115 5.653 16.5588 6.00531 16.5588 6.41701V10.1597H11.2882V9.41116C11.2882 9.19908 11.2162 9.02117 11.0721 8.87745C10.9276 8.73423 10.7486 8.66262 10.5353 8.66262H7.52353C7.3102 8.66262 7.1315 8.73423 6.98744 8.87745C6.84287 9.02117 6.77059 9.19908 6.77059 9.41116V10.1597H1.5ZM7.52353 4.91993H10.5353V3.42286H7.52353V4.91993ZM8.27647 11.6568V10.1597H9.78235V11.6568H8.27647ZM3.00588 16.148C2.59176 16.148 2.23738 16.0015 1.94273 15.7086C1.64758 15.4152 1.5 15.0626 1.5 14.6509V11.6568H6.77059V12.4053C6.77059 12.6174 6.84287 12.7951 6.98744 12.9383C7.1315 13.082 7.3102 13.1539 7.52353 13.1539H10.5353C10.7486 13.1539 10.9276 13.082 11.0721 12.9383C11.2162 12.7951 11.2882 12.6174 11.2882 12.4053V11.6568H16.5588V14.6509C16.5588 15.0626 16.4115 15.4152 16.1168 15.7086C15.8217 16.0015 15.4671 16.148 15.0529 16.148H3.00588Z" fill="white"/>
</g>
<defs>
<clipPath id="clip0_794_2866">
<rect width="16" height="16" fill="white" transform="translate(0.5 0.925781)"/>
</clipPath>
</defs>
</svg>
