<svg width="16" height="17" viewBox="0 0 16 17" fill="none" xmlns="http://www.w3.org/2000/svg">
<g clip-path="url(#clip0_794_2887)">
<path d="M13.8477 10.5675L10.6075 9.02222L9.23732 8.36871C9.8357 7.99179 10.3217 7.41007 10.6397 6.7094C10.905 6.12526 11.0422 5.49115 11.0422 4.84963C11.0422 4.47167 10.9822 4.11275 10.8986 3.76645C10.491 2.08831 9.18021 0.852051 7.60667 0.852051C6.06293 0.852051 4.77203 2.04425 4.33917 3.6746C4.23924 4.04862 4.17054 4.43754 4.17054 4.84963C4.17054 5.5652 4.33772 6.23236 4.62181 6.81263C4.95017 7.48579 5.43703 8.04082 6.02962 8.39768L4.7174 9.00857L1.3721 10.5663C1.0816 10.7024 0.890625 11.0301 0.890625 11.3961V15.0711C0.890625 15.5637 1.23389 15.963 1.65764 15.963H6.62613V13.1491C6.62682 13.1201 6.63533 13.0918 6.65076 13.0672L6.64869 13.0659L7.46246 11.6567L7.46453 11.658C7.49349 11.6083 7.54501 11.5731 7.60667 11.5731C7.66833 11.5731 7.71985 11.6081 7.74882 11.658L7.74965 11.6573L7.7571 11.6704C7.75813 11.6724 7.75958 11.6741 7.76041 11.6762L8.56342 13.0666L8.56239 13.0672C8.57782 13.0918 8.58633 13.1202 8.58701 13.1493V15.9632H13.5555C13.9793 15.9632 14.3227 15.5639 14.3227 15.0713V11.3961C14.3233 11.0314 14.1355 10.7068 13.8477 10.5675ZM8.56301 9.62525L8.56508 9.62649L7.7511 11.0357L7.74903 11.0345C7.7349 11.0598 7.71431 11.081 7.68935 11.0959C7.66438 11.1108 7.63593 11.1188 7.60688 11.1191C7.57783 11.1188 7.54938 11.1108 7.52441 11.0959C7.49945 11.081 7.47886 11.0598 7.46473 11.0345L7.4637 11.0351L7.45542 11.0208C7.4548 11.0194 7.45356 11.0181 7.45294 11.0167L6.64993 9.62587L6.65076 9.62525C6.63532 9.60058 6.62681 9.57221 6.62613 9.54312C6.62613 9.45106 6.70083 9.37638 6.7929 9.37638H8.42044C8.51252 9.37638 8.58721 9.45106 8.58721 9.54312C8.58688 9.57221 8.5785 9.60063 8.56301 9.62525Z" fill="#7B8489"/>
</g>
<defs>
<clipPath id="clip0_794_2887">
<rect width="16" height="16" fill="white" transform="translate(0 0.852051)"/>
</clipPath>
</defs>
</svg>
