<svg width="14" height="14" viewBox="0 0 14 14" fill="none" xmlns="http://www.w3.org/2000/svg">
<path d="M6.00426 9.50457L4.66666 10.8421V1.75033C4.66666 1.59561 4.6052 1.44724 4.49581 1.33784C4.38641 1.22845 4.23804 1.16699 4.08332 1.16699C3.92862 1.16699 3.78024 1.22845 3.67085 1.33784C3.56145 1.44724 3.49999 1.59561 3.49999 1.75033V10.8421L2.16241 9.50457C2.05239 9.39829 1.90504 9.33949 1.75209 9.34083C1.59914 9.34218 1.45284 9.40354 1.34468 9.51169C1.23653 9.61984 1.17518 9.76614 1.17385 9.91909C1.17252 10.072 1.23131 10.2194 1.33757 10.3294L3.67091 12.6627C3.7804 12.7719 3.92872 12.8333 4.08335 12.8333C4.23799 12.8333 4.38631 12.7719 4.4958 12.6627L6.82916 10.3294C6.93579 10.2195 6.99488 10.072 6.99371 9.9188C6.99255 9.76562 6.93118 9.61908 6.82286 9.51076C6.71459 9.40249 6.568 9.34112 6.41481 9.33996C6.26169 9.33879 6.11416 9.39794 6.00426 9.50457Z" fill="black"/>
<path d="M6.41732 3.49967H12.2507C12.4054 3.49967 12.5538 3.43821 12.6632 3.32882C12.7726 3.21942 12.834 3.07105 12.834 2.91634C12.834 2.76163 12.7726 2.61326 12.6632 2.50386C12.5538 2.39447 12.4054 2.33301 12.2507 2.33301H6.41732C6.26262 2.33301 6.11428 2.39447 6.00484 2.50386C5.89547 2.61326 5.83398 2.76163 5.83398 2.91634C5.83398 3.07105 5.89547 3.21942 6.00484 3.32882C6.11428 3.43821 6.26262 3.49967 6.41732 3.49967Z" fill="black"/>
<path d="M12.2507 4.66699H6.41732C6.26262 4.66699 6.11428 4.72845 6.00484 4.83784C5.89547 4.94724 5.83398 5.09561 5.83398 5.25033C5.83398 5.40503 5.89547 5.55341 6.00484 5.6628C6.11428 5.7722 6.26262 5.83366 6.41732 5.83366H12.2507C12.4054 5.83366 12.5538 5.7722 12.6632 5.6628C12.7726 5.55341 12.834 5.40503 12.834 5.25033C12.834 5.09561 12.7726 4.94724 12.6632 4.83784C12.5538 4.72845 12.4054 4.66699 12.2507 4.66699Z" fill="black"/>
<path d="M10.5007 7H6.41732C6.26262 7 6.11428 7.06148 6.00484 7.17086C5.89547 7.28023 5.83398 7.42863 5.83398 7.58333C5.83398 7.73803 5.89547 7.88643 6.00484 7.99581C6.11428 8.10524 6.26262 8.16667 6.41732 8.16667H10.5007C10.6554 8.16667 10.8038 8.10524 10.9132 7.99581C11.0226 7.88643 11.084 7.73803 11.084 7.58333C11.084 7.42863 11.0226 7.28023 10.9132 7.17086C10.8038 7.06148 10.6554 7 10.5007 7Z" fill="black"/>
</svg>
