<svg width="20" height="20" viewBox="0 0 20 20" fill="none" xmlns="http://www.w3.org/2000/svg">
<g clip-path="url(#clip0_192_2)">
<path d="M16.9309 3.74339C15.6559 3.16839 14.2892 2.74339 12.86 2.50173C12.8473 2.49928 12.8341 2.50086 12.8223 2.50623C12.8105 2.51161 12.8007 2.52052 12.7942 2.53173C12.6192 2.83923 12.4242 3.24006 12.2875 3.55673C10.7718 3.33026 9.23079 3.33026 7.71503 3.55673C7.56281 3.20578 7.39116 2.86358 7.20087 2.53173C7.19442 2.52038 7.18466 2.51127 7.1729 2.50561C7.16113 2.49995 7.14793 2.49802 7.13503 2.50006C5.7067 2.74173 4.34003 3.16673 3.0642 3.74256C3.05322 3.74716 3.04392 3.75501 3.03753 3.76506C0.444201 7.57756 -0.266632 11.2959 0.0825343 14.9676C0.0835059 14.9766 0.0862973 14.9853 0.0907384 14.9931C0.0951796 15.001 0.101178 15.0079 0.108368 15.0134C1.62203 16.1154 3.31031 16.9549 5.10253 17.4967C5.11503 17.5006 5.12839 17.5006 5.14088 17.4967C5.15337 17.4928 5.1644 17.4853 5.17253 17.4751C5.5582 16.9593 5.89995 16.4121 6.1942 15.8392C6.19829 15.8314 6.20064 15.8228 6.2011 15.814C6.20157 15.8051 6.20013 15.7963 6.19689 15.7881C6.19365 15.7799 6.18868 15.7725 6.18232 15.7663C6.17597 15.7602 6.16836 15.7555 6.16003 15.7526C5.6217 15.5498 5.1001 15.3052 4.60003 15.0209C4.59105 15.0158 4.58348 15.0085 4.578 14.9997C4.57252 14.9909 4.56931 14.9809 4.56865 14.9706C4.56798 14.9603 4.5699 14.95 4.57421 14.9405C4.57853 14.9311 4.58511 14.923 4.59337 14.9167C4.69837 14.8392 4.80337 14.7584 4.90337 14.6776C4.91237 14.6703 4.92321 14.6657 4.93469 14.6642C4.94616 14.6627 4.95782 14.6645 4.96837 14.6692C8.24087 16.1392 11.785 16.1392 15.0192 14.6692C15.0298 14.6642 15.0416 14.6622 15.0532 14.6635C15.0648 14.6649 15.0759 14.6694 15.085 14.6767C15.185 14.7584 15.2892 14.8392 15.395 14.9167C15.4034 14.9228 15.4101 14.9309 15.4145 14.9402C15.419 14.9495 15.421 14.9598 15.4205 14.9702C15.42 14.9805 15.417 14.9905 15.4117 14.9994C15.4064 15.0082 15.3989 15.0156 15.39 15.0209C14.8917 15.3076 14.3734 15.5501 13.8292 15.7517C13.8208 15.7548 13.8132 15.7595 13.8069 15.7658C13.8005 15.772 13.7955 15.7795 13.7923 15.7877C13.7891 15.796 13.7876 15.8049 13.7881 15.8138C13.7886 15.8227 13.7909 15.8313 13.795 15.8392C14.095 16.4117 14.4384 16.9567 14.8159 17.4742C14.8237 17.4848 14.8346 17.4928 14.8472 17.497C14.8597 17.5011 14.8732 17.5013 14.8859 17.4976C16.6812 16.9573 18.3722 16.1174 19.8875 15.0134C19.8949 15.0082 19.9011 15.0015 19.9057 14.9938C19.9103 14.986 19.9132 14.9774 19.9142 14.9684C20.3309 10.7234 19.2159 7.03506 16.9567 3.76673C16.9512 3.7561 16.942 3.74782 16.9309 3.74339ZM6.68337 12.7317C5.69837 12.7317 4.88587 11.8409 4.88587 10.7484C4.88587 9.65506 5.68253 8.76506 6.68337 8.76506C7.6917 8.76506 8.4967 9.66256 8.48087 10.7484C8.48087 11.8417 7.6842 12.7317 6.68337 12.7317V12.7317ZM13.3292 12.7317C12.3434 12.7317 11.5317 11.8409 11.5317 10.7484C11.5317 9.65506 12.3275 8.76506 13.3292 8.76506C14.3375 8.76506 15.1425 9.66256 15.1267 10.7484C15.1267 11.8417 14.3384 12.7317 13.3292 12.7317V12.7317Z" fill="#7B8489"/>
</g>
<defs>
<clipPath id="clip0_192_2">
<rect width="20" height="20" fill="white"/>
</clipPath>
</defs>
</svg>
