<svg width="20" height="20" viewBox="0 0 20 20" fill="none" xmlns="http://www.w3.org/2000/svg">
<path d="M10 0C7.34784 0 4.8043 1.05357 2.92893 2.92893C1.05357 4.8043 0 7.34784 0 10C0 12.6522 1.05357 15.1957 2.92893 17.0711C4.8043 18.9464 7.34784 20 10 20C12.6522 20 15.1957 18.9464 17.0711 17.0711C18.9464 15.1957 20 12.6522 20 10C20 7.34784 18.9464 4.8043 17.0711 2.92893C15.1957 1.05357 12.6522 0 10 0V0ZM13.2444 13.7111C13.2444 14.1 13.4 14.4111 13.6444 14.4444C13.8889 14.4778 14.1667 14.2 14.2889 13.7778L14.5111 13.8667C14.8982 14.0736 15.2023 14.4074 15.3723 14.8121C15.5422 15.2168 15.5677 15.6676 15.4444 16.0889C15.3628 16.4628 15.1612 16.7997 14.8703 17.0484C14.5795 17.2971 14.2153 17.444 13.8333 17.4667C13.2889 16.1222 11.4889 17.5333 9.87778 17.2222C9.54282 17.1379 9.23334 16.9736 8.97593 16.7432C8.71852 16.5129 8.52088 16.2236 8.4 15.9C9.72222 15.7778 11.5667 13.9778 13.2444 13.7111V13.7111ZM8.88889 12.5222C9.38243 12.5214 9.85902 12.3421 10.2307 12.0174C10.6024 11.6927 10.8441 11.2445 10.9111 10.7556C11.1467 11.0464 11.2687 11.4128 11.2544 11.7868C11.2401 12.1608 11.0905 12.5169 10.8333 12.7889C10.6934 12.9115 10.5287 13.0025 10.3505 13.056C10.1723 13.1095 9.98466 13.124 9.80033 13.0988C9.616 13.0735 9.43924 13.0089 9.282 12.9095C9.12476 12.81 8.99071 12.6779 8.88889 12.5222V12.5222ZM12.2222 11.6778C12.6778 12.1111 15.5556 11.6111 16.1333 12.8889C15.0778 12.6667 12.8556 13.5667 12.2778 11.6889L12.2222 11.6778V11.6778ZM10.8111 6.05556V6.35556C10.0889 5.5 9.33333 5.16667 9.02222 5.72222C8.71111 6.27778 10.1333 6.95556 9.86667 7.81111C9.6 8.66667 8.45556 8.43333 7.77778 9.6C7.1 10.7667 7.23333 12.2889 9.15556 13.6778C8.50737 13.6059 7.89451 13.3455 7.39286 12.9288C6.89122 12.5121 6.52283 11.9573 6.33333 11.3333C5.88889 10 6.23333 8.82222 5.46667 8.6C4.44444 8.28889 3.33333 9.67778 3.33333 10.8889C1.93333 9.48889 3.38889 7.71111 2 6.24444C2.91312 4.30014 4.50831 2.75875 6.48279 1.91284C8.45726 1.06693 10.6736 0.975374 12.7111 1.65556C12.1058 2.21651 11.6242 2.89755 11.2971 3.65518C10.9699 4.4128 10.8044 5.23034 10.8111 6.05556V6.05556Z" fill="#7B8489"/>
</svg>
