<svg width="20" height="21" viewBox="0 0 20 21" fill="none" xmlns="http://www.w3.org/2000/svg">
<path fill-rule="evenodd" clip-rule="evenodd" d="M10 0.61499C4.47939 0.61499 0 5.09438 0 10.615C0 16.1356 4.47939 20.615 10 20.615C15.5098 20.615 20 16.1356 20 10.615C20 5.09438 15.5098 0.61499 10 0.61499ZM16.6052 5.22453C17.7983 6.6779 18.5141 8.53255 18.5358 10.5391C18.2538 10.4849 15.4338 9.90999 12.5922 10.2679C12.5271 10.1269 12.4729 9.97505 12.4078 9.82324C12.2343 9.41112 12.0391 8.98812 11.8438 8.5868C14.9891 7.30699 16.4208 5.46315 16.6052 5.22453ZM10 2.09005C12.1692 2.09005 14.154 2.9035 15.6616 4.23755C15.5097 4.45447 14.2191 6.17898 11.1822 7.3178C9.78306 4.74731 8.23213 2.64319 7.9935 2.31781C8.63338 2.16597 9.30587 2.09005 10 2.09005ZM6.36662 2.89265C6.59437 3.19633 8.11281 5.3113 9.53363 7.82755C5.5423 8.89049 2.01736 8.8688 1.63774 8.8688C2.19089 6.22237 3.98047 4.02063 6.36662 2.89265ZM1.45336 10.6259C1.45336 10.5391 1.45336 10.4523 1.45336 10.3656C1.82213 10.3764 5.96529 10.4306 10.2278 9.1508C10.4773 9.62799 10.705 10.1161 10.9219 10.6041C10.8134 10.6367 10.6941 10.6692 10.5857 10.7017C6.18221 12.1226 3.83948 16.0054 3.64425 16.3308C2.2885 14.8232 1.45336 12.8167 1.45336 10.6259ZM10 19.1616C8.026 19.1616 6.20391 18.4892 4.76139 17.3612C4.91323 17.0467 6.64856 13.7061 11.4642 12.025C11.4859 12.0141 11.4968 12.0141 11.5184 12.0033C12.7223 15.1161 13.2104 17.7299 13.3406 18.4783C12.3102 18.923 11.1822 19.1616 10 19.1616ZM14.7614 17.6974C14.6746 17.1768 14.2191 14.6822 13.1019 11.6128C15.7809 11.1898 18.1236 11.884 18.4165 11.9816C18.0478 14.3569 16.6811 16.4067 14.7614 17.6974Z" fill="#7B8489"/>
</svg>
