<svg width="20" height="21" viewBox="0 0 20 21" fill="none" xmlns="http://www.w3.org/2000/svg">
<path d="M18.5195 0.11499H1.47656C0.660156 0.11499 0 0.759522 0 1.5564V18.6697C0 19.4666 0.660156 20.115 1.47656 20.115H18.5195C19.3359 20.115 20 19.4666 20 18.6736V1.5564C20 0.759522 19.3359 0.11499 18.5195 0.11499ZM5.93359 17.158H2.96484V7.61108H5.93359V17.158ZM4.44922 6.3103C3.49609 6.3103 2.72656 5.54077 2.72656 4.59155C2.72656 3.64233 3.49609 2.8728 4.44922 2.8728C5.39844 2.8728 6.16797 3.64233 6.16797 4.59155C6.16797 5.53687 5.39844 6.3103 4.44922 6.3103ZM17.043 17.158H14.0781V12.5173C14.0781 11.4119 14.0586 9.98608 12.5352 9.98608C10.9922 9.98608 10.7578 11.1931 10.7578 12.4392V17.158H7.79688V7.61108H10.6406V8.91577H10.6797C11.0742 8.16577 12.043 7.3728 13.4844 7.3728C16.4883 7.3728 17.043 9.34937 17.043 11.9197V17.158Z" fill="#7B8489"/>
</svg>
