<svg width="20" height="18" viewBox="0 0 20 18" fill="none" xmlns="http://www.w3.org/2000/svg">
<path d="M6.2918 17.2401C13.8371 17.2401 17.9652 10.9874 17.9652 5.56666C17.9652 5.39088 17.9613 5.21119 17.9535 5.03541C18.7566 4.45466 19.4496 3.73532 20 2.91119C19.2521 3.24395 18.458 3.46126 17.6449 3.55573C18.5011 3.04254 19.1421 2.23634 19.4492 1.28658C18.6438 1.76391 17.763 2.10062 16.8445 2.28229C16.2257 1.62475 15.4075 1.18938 14.5164 1.04349C13.6253 0.8976 12.711 1.04932 11.9148 1.47519C11.1186 1.90106 10.4848 2.57737 10.1115 3.39954C9.73825 4.22171 9.64619 5.14396 9.84961 6.02369C8.21874 5.94185 6.62328 5.5182 5.16665 4.78019C3.71002 4.04219 2.42474 3.00631 1.39414 1.73971C0.870333 2.64282 0.710047 3.71148 0.945859 4.72852C1.18167 5.74556 1.79589 6.63465 2.66367 7.2151C2.01219 7.19442 1.37498 7.01901 0.804688 6.70338V6.75416C0.804104 7.7019 1.13175 8.6206 1.73192 9.35409C2.3321 10.0876 3.16777 10.5906 4.09687 10.7776C3.49338 10.9427 2.85999 10.9668 2.2457 10.8479C2.50788 11.663 3.01798 12.3759 3.70481 12.8871C4.39164 13.3983 5.22093 13.6823 6.07695 13.6995C4.62369 14.841 2.82848 15.4602 0.980469 15.4573C0.652739 15.4568 0.325333 15.4367 0 15.3971C1.87738 16.6016 4.06128 17.2413 6.2918 17.2401Z" fill="#7B8489"/>
</svg>
