<svg width="100" height="100" viewBox="0 0 100 100" fill="none" xmlns="http://www.w3.org/2000/svg">
<path d="M50.0003 55.7977L49.3371 56.1776L33.3172 65.3602L16.7416 56.0684V72.4009L50.0003 91.042V55.7977Z" fill="#A97C50"/>
<path d="M50.0004 55.7977V91.042L83.2573 72.4009V56.0687L66.6818 65.3602L50.0004 55.7977Z" fill="#8B5E3C"/>
<path d="M50.0004 18.5038V55.7978L82.5959 37.5266L83.2573 37.1556L50.6448 18.865L50.0004 18.5038Z" fill="#A97C50"/>
<path d="M49.3372 56.1776L50.0004 55.7978L17.4033 37.5266L16.7417 37.1556L16.0945 37.5266L0.0593872 46.6955V46.7183L0.705047 47.0787L16.7417 56.0684L33.3172 65.3603L49.3372 56.1776Z" fill="#C49A6C"/>
<path d="M83.2573 37.1556L82.5959 37.5266L50.0004 55.7978L66.6818 65.3603L83.2573 56.0688L99.2768 47.09L99.9391 46.7183L83.903 37.5266L83.2573 37.1556Z" fill="#C49A6C"/>
<path d="M50.0003 55.7978V18.5038L49.3371 18.8759L16.7416 37.1556L17.4033 37.5266L50.0003 55.7978Z" fill="#8B5E3C"/>
<path d="M50.0004 18.5038L50.6448 18.865L83.2573 37.1556L99.2767 27.9636L99.9391 27.5835L66.6818 8.94135L50.0004 18.482V18.4927L49.9901 18.4974L33.3172 8.94135L0.0593872 27.5835V27.6061L0.705047 27.9745L0.790637 28.0228L16.7417 37.1556L49.3372 18.8759L50.0004 18.5038Z" fill="#C49A6C"/>
</svg>
