<svg width="16" height="18" viewBox="0 0 16 18" fill="none" xmlns="http://www.w3.org/2000/svg">
<path fill-rule="evenodd" clip-rule="evenodd" d="M8.00016 2.24455C6.61945 2.24455 5.50016 3.36384 5.50016 4.74455C5.50016 6.12526 6.61945 7.24455 8.00016 7.24455C9.38087 7.24455 10.5002 6.12526 10.5002 4.74455C10.5002 3.36384 9.38087 2.24455 8.00016 2.24455ZM3.8335 4.74455C3.8335 2.44336 5.69898 0.577881 8.00016 0.577881C10.3013 0.577881 12.1668 2.44336 12.1668 4.74455C12.1668 7.04573 10.3013 8.91121 8.00016 8.91121C5.69898 8.91121 3.8335 7.04573 3.8335 4.74455Z" fill="#F7FFF7"/>
<path fill-rule="evenodd" clip-rule="evenodd" d="M1.72039 11.7983C2.50179 11.0169 3.5616 10.5779 4.66667 10.5779H11.3333C12.4384 10.5779 13.4982 11.0169 14.2796 11.7983C15.061 12.5797 15.5 13.6395 15.5 14.7445V16.4112C15.5 16.8715 15.1269 17.2445 14.6667 17.2445C14.2064 17.2445 13.8333 16.8715 13.8333 16.4112V14.7445C13.8333 14.0815 13.5699 13.4456 13.1011 12.9768C12.6323 12.5079 11.9964 12.2445 11.3333 12.2445H4.66667C4.00363 12.2445 3.36774 12.5079 2.8989 12.9768C2.43006 13.4456 2.16667 14.0815 2.16667 14.7445V16.4112C2.16667 16.8715 1.79357 17.2445 1.33333 17.2445C0.873096 17.2445 0.5 16.8715 0.5 16.4112V14.7445C0.5 13.6395 0.938987 12.5797 1.72039 11.7983Z" fill="#F7FFF7"/>
</svg>
