<svg width="18" height="18" viewBox="0 0 18 18" fill="none" xmlns="http://www.w3.org/2000/svg">
<path d="M4 5.25H1.5C0.810625 5.25 0.25 4.68906 0.25 4V1.5C0.25 0.810942 0.810625 0.25 1.5 0.25H4C4.68937 0.25 5.25 0.810942 5.25 1.5V4C5.25 4.68906 4.68937 5.25 4 5.25ZM1.5 1.5V4H4.00094L4 1.5H1.5ZM17.75 2.75C17.75 2.40453 17.4702 2.125 17.125 2.125H7.125C6.77984 2.125 6.5 2.40453 6.5 2.75C6.5 3.09547 6.77984 3.375 7.125 3.375H17.125C17.4702 3.375 17.75 3.09547 17.75 2.75ZM4 11.5H1.5C0.810625 11.5 0.25 10.9391 0.25 10.25V7.75C0.25 7.06094 0.810625 6.5 1.5 6.5H4C4.68937 6.5 5.25 7.06094 5.25 7.75V10.25C5.25 10.9391 4.68937 11.5 4 11.5ZM1.5 7.75V10.25H4.00094L4 7.75H1.5ZM17.75 9C17.75 8.6545 17.4702 8.375 17.125 8.375H7.125C6.77984 8.375 6.5 8.6545 6.5 9C6.5 9.3455 6.77984 9.625 7.125 9.625H17.125C17.4702 9.625 17.75 9.3455 17.75 9ZM4 17.75H1.5C0.810625 17.75 0.25 17.1891 0.25 16.5V14C0.25 13.3109 0.810625 12.75 1.5 12.75H4C4.68937 12.75 5.25 13.3109 5.25 14V16.5C5.25 17.1891 4.68937 17.75 4 17.75ZM1.5 14V16.5H4.00094L4 14H1.5ZM17.75 15.25C17.75 14.9045 17.4702 14.625 17.125 14.625H7.125C6.77984 14.625 6.5 14.9045 6.5 15.25C6.5 15.5955 6.77984 15.875 7.125 15.875H17.125C17.4702 15.875 17.75 15.5955 17.75 15.25Z" fill="black"/>
</svg>
