<svg width="20" height="20" viewBox="0 0 20 20" fill="none" xmlns="http://www.w3.org/2000/svg">
<path d="M8.33203 0.833496H1.66536C1.44435 0.833496 1.23239 0.921296 1.07611 1.07757C0.919831 1.23385 0.832031 1.44581 0.832031 1.66683V8.3335C0.832031 8.5545 0.919831 8.7665 1.07611 8.92275C1.23239 9.079 1.44435 9.16683 1.66536 9.16683H8.33203C8.55303 9.16683 8.76503 9.079 8.92128 8.92275C9.07753 8.7665 9.16536 8.5545 9.16536 8.3335V1.66683C9.16536 1.44581 9.07753 1.23385 8.92128 1.07757C8.76503 0.921296 8.55303 0.833496 8.33203 0.833496ZM7.4987 7.50016H2.4987V2.50016H7.4987V7.50016Z" fill="black"/>
<path d="M18.332 0.833496H11.6654C11.4444 0.833496 11.2324 0.921296 11.0761 1.07757C10.9199 1.23385 10.832 1.44581 10.832 1.66683V8.3335C10.832 8.5545 10.9199 8.7665 11.0761 8.92275C11.2324 9.079 11.4444 9.16683 11.6654 9.16683H18.332C18.553 9.16683 18.765 9.079 18.9213 8.92275C19.0775 8.7665 19.1654 8.5545 19.1654 8.3335V1.66683C19.1654 1.44581 19.0775 1.23385 18.9213 1.07757C18.765 0.921296 18.553 0.833496 18.332 0.833496ZM17.4987 7.50016H12.4987V2.50016H17.4987V7.50016Z" fill="black"/>
<path d="M8.33203 10.8335H1.66536C1.44435 10.8335 1.23239 10.9213 1.07611 11.0776C0.919831 11.2338 0.832031 11.4458 0.832031 11.6668V18.3335C0.832031 18.5545 0.919831 18.7665 1.07611 18.9227C1.23239 19.079 1.44435 19.1668 1.66536 19.1668H8.33203C8.55303 19.1668 8.76503 19.079 8.92128 18.9227C9.07753 18.7665 9.16536 18.5545 9.16536 18.3335V11.6668C9.16536 11.4458 9.07753 11.2338 8.92128 11.0776C8.76503 10.9213 8.55303 10.8335 8.33203 10.8335ZM7.4987 17.5002H2.4987V12.5002H7.4987V17.5002Z" fill="black"/>
<path d="M18.332 10.8335H11.6654C11.4444 10.8335 11.2324 10.9213 11.0761 11.0776C10.9199 11.2338 10.832 11.4458 10.832 11.6668V18.3335C10.832 18.5545 10.9199 18.7665 11.0761 18.9227C11.2324 19.079 11.4444 19.1668 11.6654 19.1668H18.332C18.553 19.1668 18.765 19.079 18.9213 18.9227C19.0775 18.7665 19.1654 18.5545 19.1654 18.3335V11.6668C19.1654 11.4458 19.0775 11.2338 18.9213 11.0776C18.765 10.9213 18.553 10.8335 18.332 10.8335ZM17.4987 17.5002H12.4987V12.5002H17.4987V17.5002Z" fill="black"/>
</svg>
